<svg id="Layer_1" data-name="Layer 1" xmlns="http://www.w3.org/2000/svg" viewBox="0 0 376 304.22"><path d="M13.88,78.58C21.37,87.89,31.36,97.1,43,100.76c10.88,4.87,21.54,11,32.45,15.51,22.3,11.48,45,22.46,69.33,28.9,11.36,2.5,22.6,9.23,34.49,6.48,4.26-3.08,9.43-1.51,14-5.38,4.59-.16,7.95-2.72,11.92-4.54,2.57-.42,5.66-1,7.71-2.51,8.83-5.23,18.55-8.74,27.64-13.18,8.59-6.26,7.51-3.49,16.88-6,2.51-1.51,5.13-3.46,8.26-3.44,2.79-2.55,6.72-3.45,10.4-4.36,7.49-2.26,14.59-6,22.67-6.71C319.79,96.48,341.77,90.18,364,83c-.66-2.76,1.33-3.74,2.35-5.88-11.23-8.19-25.67-8.22-37.75-13.94-12.7-4.4-26.06-3.81-38.56-9-8.9-2.18-18.08-3.8-27.14-5.74-1.86-3.16-5.81-3.19-9.12-3.67a154.77,154.77,0,0,0-28.41-5.16c-2.29.2-16-6.22-14.69-2.22,3.67,5,8.52.83,12,4.21,6.37,3.74,14.63,4,21.78,6.17,15.6,1.9,30.37,10.52,46.18,10.15,8.69,5.4,20.71,5.26,30.67,8.16,9.8,3.54,19.17,9.37,29.79,11.34,6.8,3.14-12.8,5.93-15,7-10.29,4.21-20.82,8.33-31.42,11.81-7.74,4.67-16.25,5.16-24.53,8-11.45,4.72-22.8,9.11-34.28,13.77a278.2,278.2,0,0,0-29,13.46c-3.28,2.16-8.09.76-9.89,5.13-6.92-1.54-13.36,4.62-20.22,5.29-7,3.18-12.65,4.37-20.35,2.39-13.56-2.45-26.47-8.2-40-11.11-6.61-3.86-7.28-4.44-13.49-6.34-6.07-1.71-11.18-4.72-16.39-8.16-12.84-4.62-25.48-11.19-37.92-17.34-10.17-6.88-22-8.26-29.95-18.53-10.51-5.66-.29-9.13,6.08-11.41C58.28,61,80.21,47.63,103.51,36.79c1.87-1.49,3.73-2.95,6.29-2.94,3.73-1.24,7.22-4.74,11.13-4.67,6.81-.3,12.81-6.38,19.69-7.93,5.58-3.07,12.64-4.27,17.54-8.13,1.44-3.38-2.38-6.33-5.53-5.23C142.57,11.46,134,18.19,124,21.53c-7.43,2.59-13.41,8.26-21.43,9.14C87,38.44,71.39,46.2,55.28,53.34c-9.11,5.85-19.39,7.2-28.06,13.82-2.23,2.45-5.48,1.11-7.85,2.67C16.64,72.49,10.22,73.71,13.88,78.58Z"/><path d="M348.55,223.23c.95-31.87,4.42-64.84,2-96.1-1,12.68-6.72,23.4-7.08,36.05.85,10.9.06,21.51-.36,32.33-1.07,15.53,3.42,36.25-11.9,45.64-10.45,3.27-20.31,7.83-30,12.69-14.14,3.32-27.11,9.86-40.91,14-11.29,2.89-21.67,7.31-32.57,9.75-12.71,3.34-24,10.5-36.68,13.85-2.73-14.18,3.93-29.25.92-43.85.2-18.76-9.31-57.31,9-68.42a1.54,1.54,0,0,1,1.14-.63c2.14,0,3.07-2.29,4.9-2.81,6-1.89,10.07-6.27,16.15-8.24,4.45-1.95,10.2-1.94,13.52-5.78,2.57.69,2.56.68,4.61-.47,2.85-1.74,5.9-1.43,8.24-4.32,11.11-.88,20.73-10.55,30.9-15.24,11-4.94,20.87-11.85,31.91-16.44,3.95-.4,6-5.16,9.86-4.77,5.55-2.89,12.43-4.22,17.22-8.63,3.76-3.26,20.88-6.37,18-12.56-4.44-1.71-10,2.91-13.46,5.7-3.67,1.88-8.2,1.87-11.19,5.31-1.22,1-2.18,2.33-4.08,2.08-5,2.86-10.83,5-15.57,8.31-1.7,2.49-4.17,1.65-6.58,2.51-9.38,4.34-11,1.5-18.59,9.81-3,2.22-3,2.17-6.86,1.44-3,2.35-7.5,3.39-10.05,6.41-11.46,5.4-22.4,12.34-33.92,17.22-1.78,2.3-5,.45-6.71,2.74-1.55,1.73-3.32,3.1-5.81,3.15-1.75,1-3.6.82-5.56.61-1.4,1.26-2.8,2-4.7,1.61-2.68.29-5.06,2.86-7.68,3.55-6.4,4.14-17.88,3-19.82,11.58-8.47,27.9-1,56.6-2.19,84.83a95.75,95.75,0,0,0-1.74,32c8.38,5.53,19.27-3.94,27.91-6.73,17.73-8.27,36.62-12.61,54.88-18.95,6.59-2.07,12.27-3.84,18.28-7.65,8.45-3.48,17.16-6.05,25.72-9.25,7.7-3.32,13.71-7.71,21.74-9.32,3.87-1.77,9-.17,10.81-5.12C345.3,235.5,348,229.74,348.55,223.23Z"/><path d="M150.36,272.46c4.39,1.89,2.29-4.23,2.28-6.46.76-7.25,3.73-14.39.9-21.53-1.91-23.44-.11-46.76.05-70.17-.33-9.7-22.18-14.32-29.72-17.5-8.73-2.36-19.91-11.66-28.29-8.92-2.77-3.09-7-4.46-10.76-6.06-9.5-2.08-16.42-10.9-26.39-12.73-9.3-1.19-16.06-9.18-25.51-9.2-2.54-.64-4.66-2.75-7.4-3.12-3.6-.14-4.82-3.93-7.93-5-4.91.14.42,8.28,3.26,9.08,2.21.39,3.88,4.62,5.61,1.8,10.77,4.5,21.68,9.47,33,12.85,7.5,2.59,12.89,8.64,20.56,11.12,6.55,2.29,15,6.86,21.73,5.88,3,3.92,7.13,5.49,12,5.79,8.4,6.22,19.78,8.22,29.15,12.83,9.79,6.28,4.1,27.19,3.15,37.26.1,14.67.48,29.47.25,44.19,1.26,4.21-2.28,7.46-2.31,11.56-.18,2.14-.94,2.89-3,2.88-9.68-1-17-5.16-24.79-10.73-6.24-3.2-13.2-4.4-19.09-8.17-6.39-1.93-11.08-8.62-18-8.22-1.79-3.89-7-3.43-10-6.19C61,229.25,52,226.48,43.52,222.34c-6.44-7.28-18-9.15-23.94-16.07-3.34-9.27-7.93-18-7.78-28.12.33-3.51-2.25-6.26-2.42-9.71C9,167,9.33,164.56,7,164.85c.59,3.83.1,8.35,2.47,11.66a2.14,2.14,0,0,1,.31,2.28c-2.57,5.74-2.4,10.93-.1,16.73a43.31,43.31,0,0,0,2.53,16.16c17,5.76,31,17.6,47.86,23.39,6,4.64,14.07,4.12,20,8.25,8.48,7.42,18.43,11.76,29,15.34C120.72,268.26,135.3,275.76,150.36,272.46Z"/><path d="M206.12,36.12c.58-1.67-.54-2.26-3.33-2.33C204.32,34.84,204.84,36.43,206.12,36.12Z"/><path d="M208.6,36c0-.06,0-.17-.06-.26l-.73.4.45.34A3.82,3.82,0,0,0,208.6,36Z"/><path d="M200.22,32.22c0-.12-.07-.24-.11-.36l-.26.1C199.86,32.2,200,32.21,200.22,32.22Z"/></svg>