<svg width="22" height="23" viewBox="0 0 22 23" fill="none" xmlns="http://www.w3.org/2000/svg">
<path fill-rule="evenodd" clip-rule="evenodd" d="M15.0538 8.27688C15.0538 12.0196 12.0196 15.0538 8.27688 15.0538C4.53411 15.0538 1.5 12.0196 1.5 8.27688C1.5 4.53411 4.53411 1.5 8.27688 1.5C12.0196 1.5 15.0538 4.53411 15.0538 8.27688ZM13.0611 15.0318C11.7102 15.9903 10.0593 16.5538 8.27688 16.5538C3.70568 16.5538 0 12.8481 0 8.27688C0 3.70568 3.70568 0 8.27688 0C12.8481 0 16.5538 3.70568 16.5538 8.27688C16.5538 10.5242 15.6581 12.5623 14.2043 14.0537L21.9499 21.7993L20.8892 22.8599L13.0611 15.0318Z" fill="#1E71FF"/>
</svg>
